<svg t="1620569428568" class="icon" viewBox="0 0 1024 1024" version="1.1" xmlns="http://www.w3.org/2000/svg" p-id="12675" width="16" height="16"><path d="M510.556452 44.521739 88.830299 44.521739C40.075456 44.521739 0 84.211555 0 133.171423L0 935.350317C0 984.39017 39.689815 1024 88.649683 1024L890.828576 1024C939.868429 1024 979.478259 983.952973 979.478259 934.552461L979.478259 438.104589C980.685907 434.732899 981.34375 431.099521 981.34375 427.312497L981.34375 338.269018C981.34375 320.595907 967.016864 306.269018 949.34375 306.269018 931.670637 306.269018 917.34375 320.595907 917.34375 338.269018L917.34375 394.423913 915.478259 394.423913 915.478259 934.552461C915.478259 948.771206 904.356563 960 890.828576 960L88.649683 960C74.999469 960 64 949.007386 64 935.350317L64 133.171423C64 119.725804 75.253499 108.521739 88.830299 108.521739L597.391304 108.521739 597.391304 107.3125 608.343754 107.3125C626.016866 107.3125 640.343757 92.985613 640.343757 75.3125 640.343757 57.639389 626.016866 43.312501 608.343754 43.312501L519.300275 43.312501C516.268735 43.312501 513.335653 43.734054 510.556452 44.521739ZM935.323072 89.410026C947.819846 76.913249 947.819846 56.651969 935.323072 44.155192 922.826291 31.658414 902.565011 31.658414 890.068237 44.155192L355.807366 578.416061C343.310588 590.912838 343.310588 611.174118 355.807366 623.670895 368.304143 636.167672 388.565422 636.167672 401.0622 623.670895L935.323072 89.410026Z" p-id="12676" fill="#cdcdcd"></path></svg>