<svg t="1620569456296" class="icon" viewBox="0 0 1024 1024" version="1.1" xmlns="http://www.w3.org/2000/svg" p-id="13516" width="16" height="16"><path d="M935.1 86.3H88.9C75.1 86.3 64 97.4 64 111.2S75.1 136 88.9 136h846.2c13.7 0 24.9-11.1 24.9-24.9s-11.1-24.8-24.9-24.8zM503.1 245.6L98.2 650.5c-9.7 9.7-9.7 25.5 0 35.2s25.5 9.7 35.2 0l344.8-344.8v572c0 13.7 11.1 24.9 24.9 24.9s24.9-11.1 24.9-24.9v-572l344.8 344.8c4.9 4.9 11.2 7.3 17.6 7.3 6.4 0 12.7-2.4 17.6-7.3 9.7-9.7 9.7-25.5 0-35.2L503.1 245.6z" p-id="13517" fill="#cdcdcd"></path></svg> 